<?xml version="1.0" encoding="utf-8"?>
<!-- Generator: Adobe Illustrator 26.0.1, SVG Export Plug-In . SVG Version: 6.00 Build 0)  -->
<svg version="1.1" id="Capa_1" xmlns="http://www.w3.org/2000/svg" xmlns:xlink="http://www.w3.org/1999/xlink" x="0px" y="0px"
	 viewBox="0 0 140 140" style="enable-background:new 0 0 140 140;" xml:space="preserve">
<style type="text/css">
	.st0{fill:#EFEFEF;}
</style>
<g>
	<g>
		<g>
			<path class="st0" d="M117,112.1h-13.9c-0.5,0-1-0.6-1-1.4s0.4-1.4,1-1.4h13V11.8H33.9v17.5c0,0.8-0.4,1.4-1,1.4s-1-0.6-1-1.4
				V10.4c0-0.8,0.4-1.4,1-1.4H117c0.5,0,1,0.6,1,1.4v100.3C118,111.4,117.6,112.1,117,112.1z"/>
		</g>
		<g>
			<path class="st0" d="M103.1,131H19c-0.5,0-1-0.6-1-1.4V29.3c0-0.8,0.4-1.4,1-1.4h84.1c0.5,0,1,0.6,1,1.4v100.3
				C104.1,130.4,103.6,131,103.1,131z M20,128.2h82.2V30.7H20V128.2z"/>
		</g>
		<g>
			<path class="st0" d="M103.1,96.3c-0.2,0-0.4-0.1-0.6-0.3L82.6,74.8L67.2,92.9c-0.4,0.5-1,0.4-1.4-0.2c-0.3-0.6-0.3-1.5,0.1-2
				L82,72c0.3-0.4,0.8-0.4,1.2,0l20.5,21.9c0.4,0.5,0.5,1.3,0.2,1.9C103.7,96.1,103.4,96.3,103.1,96.3z"/>
		</g>
		<g>
			<path class="st0" d="M19,112.3c-0.3,0-0.6-0.2-0.8-0.5c-0.3-0.6-0.3-1.5,0.1-2l31.5-37.3c0.3-0.4,0.9-0.4,1.2,0l27.2,30.7
				c0.4,0.5,0.5,1.3,0.2,2c-0.3,0.6-0.9,0.7-1.4,0.2l-26.5-30L19.6,112C19.4,112.2,19.2,112.3,19,112.3z"/>
		</g>
		<g>
			<path class="st0" d="M70.1,67.8c-4,0-7.3-4.7-7.3-10.5s3.3-10.5,7.3-10.5s7.3,4.7,7.3,10.5S74.2,67.8,70.1,67.8z M70.1,49.6
				c-2.9,0-5.3,3.4-5.3,7.7c0,4.2,2.4,7.7,5.3,7.7s5.3-3.4,5.3-7.7C75.5,53.1,73.1,49.6,70.1,49.6z"/>
		</g>
	</g>
</g>
</svg>
