<?xml version="1.0" encoding="utf-8"?>
<!-- Generator: Adobe Illustrator 26.0.1, SVG Export Plug-In . SVG Version: 6.00 Build 0)  -->
<svg version="1.1" id="Capa_1" xmlns="http://www.w3.org/2000/svg" xmlns:xlink="http://www.w3.org/1999/xlink" x="0px" y="0px"
	 viewBox="0 0 140 140" style="enable-background:new 0 0 140 140;" xml:space="preserve">
<g>
	<g>
		<g>
			<path d="M117.03,112.06h-13.95c-0.54,0-0.97-0.62-0.97-1.4s0.44-1.4,0.97-1.4h12.98V11.79H33.9v17.52c0,0.77-0.44,1.4-0.97,1.4
				s-0.97-0.62-0.97-1.4V10.4c0-0.77,0.44-1.4,0.97-1.4h84.1c0.54,0,0.97,0.62,0.97,1.4v100.27
				C118,111.44,117.56,112.06,117.03,112.06z"/>
		</g>
		<g>
			<path d="M103.08,131h-84.1c-0.54,0-0.97-0.62-0.97-1.4V29.31c0-0.77,0.44-1.4,0.97-1.4h84.1c0.54,0,0.97,0.62,0.97,1.4V129.6
				C104.05,130.38,103.61,131,103.08,131z M19.95,128.21h82.16v-97.5H19.95V128.21z"/>
		</g>
		<g>
			<path d="M103.08,96.33c-0.2,0-0.41-0.09-0.58-0.28L82.63,74.83L67.2,92.93c-0.42,0.49-1.03,0.4-1.37-0.19
				c-0.34-0.6-0.28-1.48,0.14-1.96l16.02-18.8c0.35-0.4,0.84-0.42,1.2-0.04l20.47,21.87c0.43,0.46,0.52,1.34,0.2,1.95
				C103.67,96.13,103.37,96.33,103.08,96.33z"/>
		</g>
		<g>
			<path d="M18.97,112.28c-0.28,0-0.56-0.17-0.75-0.51c-0.34-0.59-0.28-1.47,0.13-1.96L49.8,72.52c0.35-0.42,0.86-0.43,1.22-0.02
				l27.16,30.65c0.42,0.48,0.5,1.35,0.16,1.96c-0.33,0.61-0.94,0.71-1.37,0.23L50.43,75.39l-30.84,36.58
				C19.41,112.18,19.19,112.28,18.97,112.28z"/>
		</g>
		<g>
			<path d="M70.14,67.76c-4.03,0-7.3-4.69-7.3-10.46c0-5.77,3.28-10.46,7.3-10.46c4.02,0,7.29,4.69,7.29,10.46
				C77.43,63.07,74.16,67.76,70.14,67.76z M70.14,49.64c-2.95,0-5.35,3.44-5.35,7.66c0,4.23,2.4,7.66,5.35,7.66
				c2.95,0,5.35-3.44,5.35-7.66C75.48,53.08,73.08,49.64,70.14,49.64z"/>
		</g>
	</g>
</g>
</svg>
