<?xml version="1.0" encoding="utf-8"?>
<!-- Generator: Adobe Illustrator 26.0.1, SVG Export Plug-In . SVG Version: 6.00 Build 0)  -->
<svg version="1.1" id="Capa_1" xmlns="http://www.w3.org/2000/svg" xmlns:xlink="http://www.w3.org/1999/xlink" x="0px" y="0px"
	 viewBox="0 0 140 140" style="enable-background:new 0 0 140 140;" xml:space="preserve">
<style type="text/css">
	.st0{fill:#EFEFEF;}
</style>
<g>
	<g>
		<g>
			<path class="st0" d="M92.1,131H18.9c-0.5,0-0.9-0.4-0.9-1V19.4c0-0.5,0.4-1,0.9-1h73.3c0.5,0,0.9,0.5,0.9,1V130
				C93,130.6,92.6,131,92.1,131z M19.7,129h71.6V20.4H19.7V129z"/>
		</g>
		<g>
			<path class="st0" d="M83.5,72.1h-56c-0.5,0-0.9-0.4-0.9-1v-7.3c0-0.5,0.4-1,0.9-1h56c0.5,0,0.9,0.5,0.9,1v7.3
				C84.4,71.7,84,72.1,83.5,72.1z M28.4,70.1h54.2v-5.3H28.4V70.1z"/>
		</g>
		<g>
			<path class="st0" d="M83.5,81.8h-56c-0.5,0-0.9-0.4-0.9-1s0.4-1,0.9-1h56c0.5,0,0.9,0.4,0.9,1C84.4,81.4,84,81.8,83.5,81.8z"/>
		</g>
		<g>
			<path class="st0" d="M67.6,88.3H27.5c-0.5,0-0.9-0.4-0.9-1s0.4-1,0.9-1h40.1c0.5,0,0.9,0.4,0.9,1C68.5,87.8,68.1,88.3,67.6,88.3z
				"/>
		</g>
		<g>
			<path class="st0" d="M83.5,94.7h-56c-0.5,0-0.9-0.4-0.9-1s0.4-1,0.9-1h56c0.5,0,0.9,0.4,0.9,1S84,94.7,83.5,94.7z"/>
		</g>
		<g>
			<path class="st0" d="M83.5,101.1h-56c-0.5,0-0.9-0.4-0.9-1s0.4-1,0.9-1h56c0.5,0,0.9,0.4,0.9,1S84,101.1,83.5,101.1z"/>
		</g>
		<g>
			<path class="st0" d="M73.1,107.6H27.5c-0.5,0-0.9-0.4-0.9-1s0.4-1,0.9-1h45.5c0.5,0,0.9,0.4,0.9,1
				C73.9,107.1,73.5,107.6,73.1,107.6z"/>
		</g>
		<g>
			<path class="st0" d="M83.5,114h-56c-0.5,0-0.9-0.4-0.9-1s0.4-1,0.9-1h56c0.5,0,0.9,0.4,0.9,1C84.4,113.5,84,114,83.5,114z"/>
		</g>
		<g>
			<path class="st0" d="M47.1,55.7H27.5c-0.5,0-0.9-0.5-0.9-1V32c0-0.5,0.4-1,0.9-1h19.6c0.5,0,0.9,0.5,0.9,1v22.7
				C48,55.2,47.6,55.7,47.1,55.7z M28.4,53.7h17.9V33H28.4V53.7z"/>
		</g>
		<g>
			<path class="st0" d="M80.7,24.8c-0.5,0-0.9-0.5-0.9-1s0.4-1,0.9-1c1.2,0,2.2-1.2,2.2-2.6v-6.6c0-1.4-1-2.6-2.2-2.6
				s-2.2,1.2-2.2,2.6c0,0.6-0.4,1-0.9,1s-0.9-0.4-0.9-1c0-2.5,1.8-4.6,4-4.6s4,2.1,4,4.6v6.6C84.6,22.7,82.8,24.8,80.7,24.8z
				 M70.6,24.8c-0.5,0-0.9-0.5-0.9-1s0.4-1,0.9-1c1.2,0,2.2-1.2,2.2-2.6v-6.6c0-1.4-1-2.6-2.2-2.6s-2.2,1.2-2.2,2.6
				c0,0.6-0.4,1-0.9,1s-0.9-0.4-0.9-1c0-2.5,1.8-4.6,4-4.6s4,2.1,4,4.6v6.6C74.6,22.7,72.8,24.8,70.6,24.8z M60.5,24.8
				c-0.5,0-0.9-0.5-0.9-1s0.4-1,0.9-1c1.2,0,2.2-1.2,2.2-2.6v-6.6c0-1.4-1-2.6-2.2-2.6s-2.2,1.2-2.2,2.6c0,0.6-0.4,1-0.9,1
				s-0.9-0.4-0.9-1c0-2.5,1.8-4.6,4-4.6c2.2,0,4,2.1,4,4.6v6.6C64.5,22.7,62.7,24.8,60.5,24.8z M50.5,24.8c-0.5,0-0.9-0.5-0.9-1
				s0.4-1,0.9-1c1.2,0,2.2-1.2,2.2-2.6v-6.6c0-1.4-1-2.6-2.2-2.6s-2.2,1.2-2.2,2.6c0,0.6-0.4,1-0.9,1s-0.9-0.4-0.9-1
				c0-2.5,1.8-4.6,4-4.6c2.2,0,4,2.1,4,4.6v6.6C54.4,22.7,52.7,24.8,50.5,24.8z M40.4,24.8c-0.5,0-0.9-0.5-0.9-1s0.4-1,0.9-1
				c1.2,0,2.2-1.2,2.2-2.6v-6.6c0-1.4-1-2.6-2.2-2.6s-2.2,1.2-2.2,2.6c0,0.6-0.4,1-0.9,1s-0.9-0.4-0.9-1c0-2.5,1.8-4.6,4-4.6
				s4,2.1,4,4.6v6.6C44.4,22.7,42.6,24.8,40.4,24.8z M30.3,24.8c-0.5,0-0.9-0.5-0.9-1s0.4-1,0.9-1c1.2,0,2.2-1.2,2.2-2.6v-6.6
				c0-1.4-1-2.6-2.2-2.6c-1.2,0-2.2,1.2-2.2,2.6c0,0.6-0.4,1-0.9,1s-0.9-0.4-0.9-1c0-2.5,1.8-4.6,4-4.6s4,2.1,4,4.6v6.6
				C34.3,22.7,32.5,24.8,30.3,24.8z"/>
		</g>
		<g>
			<path class="st0" d="M108.2,126.9L108.2,126.9c-0.3,0-0.6-0.2-0.8-0.6l-8.7-20.8c-0.1-0.1-0.1-0.3-0.1-0.4V33.4
				c0-0.5,0.4-1,0.9-1h17.4c0.5,0,0.9,0.5,0.9,1v71.7c0,0.2,0,0.3-0.1,0.4l-8.7,20.8C108.9,126.7,108.6,126.9,108.2,126.9z
				 M100.4,104.9l7.8,18.7l7.8-18.7V34.4h-15.7L100.4,104.9L100.4,104.9z"/>
		</g>
		<g>
			<path class="st0" d="M108.2,126.9L108.2,126.9c-0.3,0-0.6-0.2-0.8-0.6l-2.5-5.9c-0.1-0.3-0.1-0.6,0-0.9s0.3-0.5,0.6-0.5
				c1.8-0.4,3.5-0.4,5.3,0c0.3,0.1,0.5,0.3,0.6,0.5c0.1,0.3,0.1,0.6,0,0.9l-2.5,5.9C108.9,126.7,108.6,126.9,108.2,126.9z
				 M107,120.8l1.2,2.8l1.2-2.8C108.6,120.7,107.8,120.7,107,120.8z"/>
		</g>
		<g>
			<path class="st0" d="M117.1,106.2c-0.2,0-0.3-0.1-0.4-0.1l-2.9-2l-1.8,1.8c-0.3,0.3-0.8,0.3-1.1,0.1l-2.9-2.4l-2,2.3
				c-0.2,0.2-0.4,0.3-0.6,0.3l0,0c-0.2,0-0.4-0.1-0.6-0.3l-2-2.3L100,106c-0.4,0.3-0.9,0.2-1.2-0.2c-0.3-0.4-0.2-1.1,0.2-1.4
				l3.5-2.9c0.3-0.3,0.8-0.2,1.1,0.1l1.9,2.2l1.9-2.2c0.3-0.3,0.8-0.4,1.1-0.1l2.9,2.4l1.8-1.8c0.3-0.3,0.7-0.3,1-0.1l3.4,2.3
				c0.4,0.3,0.6,0.9,0.3,1.4C117.7,106,117.4,106.2,117.1,106.2z"/>
		</g>
		<g>
			<path class="st0" d="M103,103.6c-0.5,0-0.9-0.4-0.9-1V33.4c0-0.5,0.4-1,0.9-1s0.9,0.5,0.9,1v69.1
				C103.9,103.1,103.5,103.6,103,103.6z"/>
		</g>
		<g>
			<path class="st0" d="M107.9,103.9c-0.5,0-0.9-0.4-0.9-1l-0.3-69.5c0-0.5,0.4-1,0.9-1l0,0c0.5,0,0.9,0.5,0.9,1l0.3,69.5
				C108.8,103.4,108.4,103.9,107.9,103.9L107.9,103.9z"/>
		</g>
		<g>
			<path class="st0" d="M113.4,104.7c-0.5,0-0.9-0.4-0.9-1V33.4c0-0.5,0.4-1,0.9-1s0.9,0.5,0.9,1v70.3
				C114.2,104.3,113.8,104.7,113.4,104.7z"/>
		</g>
		<g>
			<path class="st0" d="M116.9,34.4H99.5c-0.5,0-0.9-0.5-0.9-1v-5.2c0-3.4,2.4-6.2,5.4-6.2h8.4c3,0,5.4,2.8,5.4,6.2v5.2
				C117.8,34,117.4,34.4,116.9,34.4z M100.4,32.4h15.7v-4.2c0-2.3-1.6-4.2-3.7-4.2H104c-2,0-3.7,1.9-3.7,4.2L100.4,32.4L100.4,32.4z
				"/>
		</g>
	</g>
</g>
</svg>
