<?xml version="1.0" encoding="utf-8"?>
<!-- Generator: Adobe Illustrator 26.0.1, SVG Export Plug-In . SVG Version: 6.00 Build 0)  -->
<svg version="1.1" id="Capa_1" xmlns="http://www.w3.org/2000/svg" xmlns:xlink="http://www.w3.org/1999/xlink" x="0px" y="0px"
	 viewBox="0 0 140 140" style="enable-background:new 0 0 140 140;" xml:space="preserve">
<g>
	<g>
		<g>
			<path d="M92.14,131H18.87c-0.48,0-0.87-0.45-0.87-1V19.39c0-0.55,0.39-1,0.87-1h73.28c0.48,0,0.87,0.45,0.87,1V130
				C93.01,130.55,92.62,131,92.14,131z M19.73,129h71.55V20.4H19.73V129z"/>
		</g>
		<g>
			<path d="M83.49,72.11H27.51c-0.48,0-0.87-0.45-0.87-1v-7.31c0-0.55,0.39-1,0.87-1h55.98c0.48,0,0.87,0.45,0.87,1v7.31
				C84.36,71.66,83.97,72.11,83.49,72.11z M28.38,70.1h54.25v-5.31H28.38V70.1z"/>
		</g>
		<g>
			<path d="M83.49,81.82H27.51c-0.48,0-0.87-0.45-0.87-1c0-0.55,0.39-1,0.87-1h55.98c0.48,0,0.87,0.45,0.87,1
				C84.36,81.38,83.97,81.82,83.49,81.82z"/>
		</g>
		<g>
			<path d="M67.63,88.26H27.51c-0.48,0-0.87-0.45-0.87-1c0-0.55,0.39-1,0.87-1h40.12c0.48,0,0.87,0.45,0.87,1
				C68.49,87.81,68.11,88.26,67.63,88.26z"/>
		</g>
		<g>
			<path d="M83.49,94.68H27.51c-0.48,0-0.87-0.45-0.87-1c0-0.55,0.39-1,0.87-1h55.98c0.48,0,0.87,0.45,0.87,1
				C84.36,94.23,83.97,94.68,83.49,94.68z"/>
		</g>
		<g>
			<path d="M83.49,101.11H27.51c-0.48,0-0.87-0.45-0.87-1c0-0.55,0.39-1,0.87-1h55.98c0.48,0,0.87,0.45,0.87,1
				C84.36,100.66,83.97,101.11,83.49,101.11z"/>
		</g>
		<g>
			<path d="M73.05,107.55H27.51c-0.48,0-0.87-0.45-0.87-1c0-0.55,0.39-1,0.87-1h45.54c0.48,0,0.87,0.45,0.87,1
				C73.91,107.1,73.52,107.55,73.05,107.55z"/>
		</g>
		<g>
			<path d="M83.49,113.97H27.51c-0.48,0-0.87-0.45-0.87-1c0-0.55,0.39-1,0.87-1h55.98c0.48,0,0.87,0.45,0.87,1
				C84.36,113.52,83.97,113.97,83.49,113.97z"/>
		</g>
		<g>
			<path d="M47.12,55.69H27.51c-0.48,0-0.87-0.45-0.87-1V31.96c0-0.55,0.39-1,0.87-1h19.61c0.48,0,0.87,0.45,0.87,1v22.72
				C47.99,55.24,47.6,55.69,47.12,55.69z M28.38,53.68h17.88V32.96H28.38V53.68z"/>
		</g>
		<g>
			<path d="M80.66,24.75c-0.48,0-0.87-0.45-0.87-1c0-0.55,0.39-1,0.87-1c1.23,0,2.23-1.16,2.23-2.59v-6.57c0-1.42-1-2.58-2.23-2.58
				c-1.23,0-2.23,1.16-2.23,2.58c0,0.55-0.39,1-0.87,1c-0.48,0-0.87-0.45-0.87-1c0-2.53,1.78-4.59,3.96-4.59
				c2.18,0,3.96,2.06,3.96,4.59v6.57C84.62,22.69,82.85,24.75,80.66,24.75z M70.6,24.75c-0.48,0-0.87-0.45-0.87-1
				c0-0.55,0.39-1,0.87-1c1.23,0,2.23-1.16,2.23-2.59v-6.57c0-1.42-1-2.58-2.23-2.58c-1.23,0-2.23,1.16-2.23,2.58
				c0,0.55-0.39,1-0.87,1c-0.48,0-0.87-0.45-0.87-1c0-2.53,1.78-4.59,3.96-4.59c2.18,0,3.96,2.06,3.96,4.59v6.57
				C74.56,22.69,72.78,24.75,70.6,24.75z M60.54,24.75c-0.48,0-0.87-0.45-0.87-1c0-0.55,0.39-1,0.87-1c1.23,0,2.23-1.16,2.23-2.59
				v-6.57c0-1.42-1-2.58-2.23-2.58c-1.23,0-2.24,1.16-2.24,2.58c0,0.55-0.39,1-0.87,1c-0.48,0-0.87-0.45-0.87-1
				c0-2.53,1.78-4.59,3.97-4.59c2.18,0,3.96,2.06,3.96,4.59v6.57C64.49,22.69,62.72,24.75,60.54,24.75z M50.47,24.75
				c-0.48,0-0.87-0.45-0.87-1c0-0.55,0.39-1,0.87-1c1.23,0,2.23-1.16,2.23-2.59v-6.57c0-1.42-1-2.58-2.23-2.58
				c-1.23,0-2.24,1.16-2.24,2.58c0,0.55-0.39,1-0.87,1c-0.48,0-0.87-0.45-0.87-1c0-2.53,1.78-4.59,3.97-4.59
				c2.18,0,3.96,2.06,3.96,4.59v6.57C54.43,22.69,52.65,24.75,50.47,24.75z M40.41,24.75c-0.48,0-0.87-0.45-0.87-1
				c0-0.55,0.39-1,0.87-1c1.23,0,2.23-1.16,2.23-2.59v-6.57c0-1.42-1-2.58-2.23-2.58c-1.23,0-2.23,1.16-2.23,2.58
				c0,0.55-0.39,1-0.87,1c-0.48,0-0.87-0.45-0.87-1c0-2.53,1.78-4.59,3.96-4.59c2.18,0,3.96,2.06,3.96,4.59v6.57
				C44.37,22.69,42.6,24.75,40.41,24.75z M30.34,24.75c-0.48,0-0.87-0.45-0.87-1c0-0.55,0.39-1,0.87-1c1.23,0,2.24-1.16,2.24-2.59
				v-6.57c0-1.42-1-2.58-2.24-2.58c-1.23,0-2.23,1.16-2.23,2.58c0,0.55-0.39,1-0.87,1s-0.87-0.45-0.87-1c0-2.53,1.77-4.59,3.96-4.59
				c2.19,0,3.97,2.06,3.97,4.59v6.57C34.31,22.69,32.53,24.75,30.34,24.75z"/>
		</g>
		<g>
			<path d="M108.23,126.93L108.23,126.93c-0.33,0-0.63-0.22-0.78-0.56l-8.71-20.77c-0.06-0.14-0.09-0.29-0.09-0.44V33.44
				c0-0.55,0.39-1,0.87-1h17.42c0.48,0,0.87,0.45,0.87,1v71.72c0,0.15-0.03,0.3-0.09,0.44l-8.71,20.77
				C108.86,126.71,108.56,126.93,108.23,126.93z M100.38,104.93l7.85,18.7l7.85-18.7V34.44h-15.69V104.93z"/>
		</g>
		<g>
			<path d="M108.23,126.93L108.23,126.93c-0.33,0-0.63-0.22-0.78-0.56l-2.48-5.91c-0.12-0.28-0.12-0.6,0-0.88
				c0.12-0.28,0.34-0.48,0.59-0.54c1.77-0.44,3.53-0.45,5.33,0c0.26,0.06,0.48,0.26,0.59,0.54c0.12,0.28,0.12,0.6,0,0.88l-2.48,5.91
				C108.86,126.71,108.56,126.93,108.23,126.93z M107.03,120.78l1.2,2.85l1.2-2.85C108.62,120.67,107.83,120.67,107.03,120.78z"/>
		</g>
		<g>
			<path d="M117.13,106.19c-0.15,0-0.3-0.05-0.44-0.14l-2.86-1.96l-1.82,1.83c-0.3,0.3-0.75,0.33-1.07,0.06l-2.87-2.4l-1.98,2.3
				c-0.16,0.19-0.38,0.29-0.61,0.29l0,0c-0.23,0-0.45-0.11-0.61-0.29l-1.98-2.29l-2.86,2.4c-0.39,0.33-0.93,0.22-1.21-0.22
				c-0.28-0.45-0.19-1.07,0.19-1.4l3.46-2.9c0.34-0.29,0.82-0.25,1.12,0.1l1.89,2.19l1.89-2.19c0.3-0.35,0.78-0.39,1.12-0.1
				l2.91,2.44l1.77-1.78c0.28-0.28,0.69-0.32,1.01-0.11l3.4,2.33c0.41,0.28,0.55,0.9,0.3,1.37
				C117.72,106.01,117.43,106.19,117.13,106.19z"/>
		</g>
		<g>
			<path d="M103.01,103.56c-0.48,0-0.87-0.45-0.87-1V33.44c0-0.55,0.39-1,0.87-1c0.48,0,0.87,0.45,0.87,1v69.12
				C103.88,103.11,103.49,103.56,103.01,103.56z"/>
		</g>
		<g>
			<path d="M107.91,103.91c-0.48,0-0.86-0.45-0.87-1l-0.27-69.46c0-0.55,0.38-1,0.86-1.01c0,0,0,0,0,0c0.48,0,0.86,0.45,0.87,1
				l0.27,69.46C108.78,103.45,108.39,103.9,107.91,103.91L107.91,103.91z"/>
		</g>
		<g>
			<path d="M113.37,104.71c-0.48,0-0.87-0.45-0.87-1V33.44c0-0.55,0.39-1,0.87-1c0.48,0,0.87,0.45,0.87,1v70.27
				C114.24,104.26,113.85,104.71,113.37,104.71z"/>
		</g>
		<g>
			<path d="M116.94,34.44H99.52c-0.48,0-0.87-0.45-0.87-1V28.2c0-3.44,2.42-6.24,5.38-6.24h8.38c2.97,0,5.38,2.8,5.38,6.24v5.24
				C117.8,33.99,117.41,34.44,116.94,34.44z M100.38,32.44h15.69V28.2c0-2.34-1.64-4.24-3.65-4.24h-8.38c-2.01,0-3.65,1.9-3.65,4.24
				V32.44z"/>
		</g>
	</g>
</g>
</svg>
