<?xml version="1.0" encoding="utf-8"?>
<!-- Generator: Adobe Illustrator 26.0.1, SVG Export Plug-In . SVG Version: 6.00 Build 0)  -->
<svg version="1.1" id="Capa_1" xmlns="http://www.w3.org/2000/svg" xmlns:xlink="http://www.w3.org/1999/xlink" x="0px" y="0px"
	 viewBox="0 0 140 140" style="enable-background:new 0 0 140 140;" xml:space="preserve">
<g>
	<g>
		<g>
			<path d="M74.15,53.11H61.91c-0.59,0-1.07-0.45-1.07-1V15.76c0-3.72,3.23-6.76,7.19-6.76c3.96,0,7.19,3.03,7.19,6.76v36.35
				C75.22,52.66,74.74,53.11,74.15,53.11z M62.98,51.11h10.1V15.76c0-2.62-2.27-4.75-5.05-4.75c-2.79,0-5.05,2.13-5.05,4.75V51.11z"
				/>
		</g>
		<g>
			<path d="M67.79,119.96C67.79,119.96,67.79,119.96,67.79,119.96c-0.36,0-0.7-0.17-0.89-0.46L48.94,93.73
				c-0.18-0.26-0.22-0.58-0.12-0.87L61.03,59.3c0.15-0.41,0.55-0.68,1.01-0.68h11.97c0.46,0,0.86,0.27,1.01,0.68l12.22,33.58
				c0.11,0.3,0.06,0.62-0.12,0.88l-18.44,25.76C68.48,119.79,68.15,119.96,67.79,119.96z M51.01,93.04l16.79,24.1l17.25-24.09
				l-11.8-32.43H62.81L51.01,93.04z"/>
		</g>
		<g>
			<path d="M78.83,60.62h-21.6c-0.59,0-1.07-0.45-1.07-1v-7.51c0-0.55,0.48-1,1.07-1h21.6c0.59,0,1.07,0.45,1.07,1v7.51
				C79.9,60.17,79.42,60.62,78.83,60.62z M58.3,58.62h19.46v-5.5H58.3V58.62z"/>
		</g>
		<g>
			<path d="M68.03,91.85c-3.77,0-6.83-2.88-6.83-6.42c0-3.54,3.07-6.42,6.83-6.42c3.77,0,6.84,2.88,6.84,6.42
				C74.87,88.97,71.8,91.85,68.03,91.85z M68.03,81.02c-2.59,0-4.69,1.98-4.69,4.41c0,2.43,2.11,4.41,4.69,4.41
				c2.6,0,4.71-1.98,4.71-4.41C72.74,83,70.62,81.02,68.03,81.02z"/>
		</g>
		<g>
			<path d="M67.79,119.96C67.79,119.96,67.79,119.96,67.79,119.96c-0.6,0-1.07-0.46-1.07-1.01l0.23-28.12c0-0.55,0.48-1,1.07-1
				c0,0,0,0,0.01,0c0.59,0,1.06,0.46,1.06,1.01l-0.23,28.12C68.86,119.52,68.38,119.96,67.79,119.96z"/>
		</g>
		<g>
			<path d="M77.5,131.15H58.57c-0.59,0-1.07-0.45-1.07-1v-10.02c0-0.55,0.48-1,1.07-1H77.5c0.59,0,1.07,0.45,1.07,1v10.02
				C78.57,130.7,78.09,131.15,77.5,131.15z M59.64,129.15h16.79v-8.01H59.64V129.15z"/>
		</g>
		<g>
			<path d="M116.93,128.69h-9.6c-0.59,0-1.07-0.45-1.07-1v-5.08c0-0.55,0.48-1,1.07-1h9.6c0.59,0,1.07,0.45,1.07,1v5.08
				C118,128.24,117.52,128.69,116.93,128.69z M108.4,126.68h7.46v-3.08h-7.46V126.68z"/>
		</g>
		<g>
			<path d="M107.33,126.15H77.5c-0.59,0-1.07-0.45-1.07-1c0-0.55,0.48-1,1.07-1h29.83c0.59,0,1.07,0.45,1.07,1
				C108.4,125.7,107.92,126.15,107.33,126.15z"/>
		</g>
		<g>
			<path d="M28.66,128.69h-9.59c-0.59,0-1.07-0.45-1.07-1v-5.08c0-0.55,0.48-1,1.07-1h9.59c0.59,0,1.07,0.45,1.07,1v5.08
				C29.73,128.24,29.25,128.69,28.66,128.69z M20.14,126.68h7.45v-3.08h-7.45V126.68z"/>
		</g>
		<g>
			<path d="M58.49,126.15H28.66c-0.59,0-1.07-0.45-1.07-1c0-0.55,0.48-1,1.07-1h29.83c0.59,0,1.07,0.45,1.07,1
				C59.56,125.7,59.08,126.15,58.49,126.15z"/>
		</g>
	</g>
</g>
</svg>
