<?xml version="1.0" encoding="utf-8"?>
<!-- Generator: Adobe Illustrator 26.0.1, SVG Export Plug-In . SVG Version: 6.00 Build 0)  -->
<svg version="1.1" id="Capa_1" xmlns="http://www.w3.org/2000/svg" xmlns:xlink="http://www.w3.org/1999/xlink" x="0px" y="0px"
	 viewBox="0 0 140 140" style="enable-background:new 0 0 140 140;" xml:space="preserve">
<style type="text/css">
	.st0{fill:#EFEFEF;}
</style>
<g>
	<g>
		<g>
			<path class="st0" d="M74.2,53.1H61.9c-0.6,0-1.1-0.5-1.1-1V15.8C60.8,12,64.1,9,68,9s7.2,3,7.2,6.8v36.3
				C75.2,52.7,74.7,53.1,74.2,53.1z M63,51.1h10.1V15.8c0-2.6-2.3-4.8-5.1-4.8c-2.8,0-5,2.1-5,4.8V51.1z"/>
		</g>
		<g>
			<path class="st0" d="M67.8,120L67.8,120c-0.4,0-0.7-0.2-0.9-0.5l-18-25.8c-0.2-0.3-0.2-0.6-0.1-0.9L61,59.3
				c0.2-0.4,0.5-0.7,1-0.7h12c0.5,0,0.9,0.3,1,0.7l12.2,33.6c0.1,0.3,0.1,0.6-0.1,0.9l-18.4,25.8C68.5,119.8,68.2,120,67.8,120z
				 M51,93l16.8,24.1l17.2-24.1L73.2,60.6H62.8L51,93z"/>
		</g>
		<g>
			<path class="st0" d="M78.8,60.6H57.2c-0.6,0-1.1-0.5-1.1-1v-7.5c0-0.5,0.5-1,1.1-1h21.6c0.6,0,1.1,0.5,1.1,1v7.5
				C79.9,60.2,79.4,60.6,78.8,60.6z M58.3,58.6h19.5v-5.5H58.3V58.6z"/>
		</g>
		<g>
			<path class="st0" d="M68,91.8c-3.8,0-6.8-2.9-6.8-6.4S64.3,79,68,79c3.8,0,6.8,2.9,6.8,6.4C74.9,89,71.8,91.8,68,91.8z M68,81
				c-2.6,0-4.7,2-4.7,4.4c0,2.4,2.1,4.4,4.7,4.4c2.6,0,4.7-2,4.7-4.4C72.7,83,70.6,81,68,81z"/>
		</g>
		<g>
			<path class="st0" d="M67.8,120L67.8,120c-0.6,0-1.1-0.5-1.1-1L67,90.8c0-0.6,0.5-1,1.1-1c0,0,0,0,0,0c0.6,0,1.1,0.5,1.1,1
				L68.9,119C68.9,119.5,68.4,120,67.8,120z"/>
		</g>
		<g>
			<path class="st0" d="M77.5,131.1H58.6c-0.6,0-1.1-0.4-1.1-1v-10c0-0.6,0.5-1,1.1-1h18.9c0.6,0,1.1,0.4,1.1,1v10
				C78.6,130.7,78.1,131.1,77.5,131.1z M59.6,129.1h16.8v-8H59.6V129.1z"/>
		</g>
		<g>
			<path class="st0" d="M116.9,128.7h-9.6c-0.6,0-1.1-0.4-1.1-1v-5.1c0-0.6,0.5-1,1.1-1h9.6c0.6,0,1.1,0.4,1.1,1v5.1
				C118,128.2,117.5,128.7,116.9,128.7z M108.4,126.7h7.5v-3.1h-7.5V126.7z"/>
		</g>
		<g>
			<path class="st0" d="M107.3,126.2H77.5c-0.6,0-1.1-0.4-1.1-1s0.5-1,1.1-1h29.8c0.6,0,1.1,0.4,1.1,1
				C108.4,125.7,107.9,126.2,107.3,126.2z"/>
		</g>
		<g>
			<path class="st0" d="M28.7,128.7h-9.6c-0.6,0-1.1-0.4-1.1-1v-5.1c0-0.6,0.5-1,1.1-1h9.6c0.6,0,1.1,0.4,1.1,1v5.1
				C29.7,128.2,29.2,128.7,28.7,128.7z M20.1,126.7h7.5v-3.1h-7.5V126.7z"/>
		</g>
		<g>
			<path class="st0" d="M58.5,126.2H28.7c-0.6,0-1.1-0.4-1.1-1s0.5-1,1.1-1h29.8c0.6,0,1.1,0.4,1.1,1
				C59.6,125.7,59.1,126.2,58.5,126.2z"/>
		</g>
	</g>
</g>
</svg>
