<?xml version="1.0" encoding="utf-8"?>
<!-- Generator: Adobe Illustrator 26.0.1, SVG Export Plug-In . SVG Version: 6.00 Build 0)  -->
<svg version="1.1" id="Capa_1" xmlns="http://www.w3.org/2000/svg" xmlns:xlink="http://www.w3.org/1999/xlink" x="0px" y="0px"
	 viewBox="0 0 140 140" style="enable-background:new 0 0 140 140;" xml:space="preserve">
<style type="text/css">
	.st0{fill:none;}
	.st1{fill:none;stroke:#000000;stroke-width:1.3;stroke-linecap:round;stroke-linejoin:round;stroke-miterlimit:10;}
	.st2{fill:none;stroke:#000000;stroke-width:1.3;stroke-linecap:round;stroke-linejoin:round;stroke-miterlimit:2.6131;}
</style>
<g>
	<g id="XMLID_607_">
		<g>
			<g id="XMLID_608_">
				<g>
					<polygon class="st0" points="108.62,91.8 108.62,92.34 79.68,106.27 72.93,91.94 					"/>
					<path class="st1" d="M78.52,57.38c1.81-1.5,3.37-3.39,4.58-5.61l25.52,11.35l0.01,0.44L75.1,78.71v-5.53h3.42v-4.87v-3.94
						V57.38z"/>
					<rect x="62.32" y="73.16" class="st1" width="12.78" height="0.01"/>
					<polygon class="st0" points="75.1,78.71 108.62,63.57 118,87.82 108.62,92.34 108.62,91.8 72.93,91.94 68.26,82.04 
						68.17,81.84 					"/>
					<polygon class="st1" points="108.62,112.04 68.63,131 68.26,91.96 72.93,91.94 79.68,106.27 108.62,92.34 					"/>
					<polygon class="st1" points="56.07,106.27 63.22,91.99 68.26,91.96 68.63,131 27.71,112.04 27.71,92.52 					"/>
					<polygon class="st1" points="68.26,82.04 72.93,91.94 68.26,91.96 63.22,91.99 68.17,82.1 					"/>
					<polygon class="st1" points="62.32,73.18 75.1,73.18 75.1,78.71 68.17,81.84 68.26,82.04 68.17,82.1 62.12,79.34 62.32,78.73 
											"/>
					<polygon class="st1" points="78.52,68.31 58.9,68.31 58.9,64.36 67.93,64.36 69.48,64.36 78.52,64.36 					"/>
					<path class="st1" d="M75.6,45.43l-3.56,0.55l-3.45-6.66l-3.35,6.69l-3.43-0.58l6.13,18.93H58.9v-6.98
						c-1.93-1.59-3.57-3.65-4.81-6.04c-1.66-3.16-2.62-6.91-2.62-10.93c0-11.4,7.72-20.66,17.24-20.66
						c9.52,0,17.23,9.26,17.23,20.66c0,4.2-1.04,8.1-2.85,11.36c-1.21,2.21-2.77,4.11-4.58,5.61v6.98h-9.03L75.6,45.43z"/>
					<polygon class="st1" points="65.24,46.01 68.59,39.32 72.04,45.98 75.6,45.43 69.48,64.36 67.93,64.36 61.8,45.43 					"/>
					<polygon class="st1" points="58.9,68.31 78.52,68.31 78.52,73.18 75.1,73.18 75.1,73.16 62.32,73.16 62.32,73.18 58.9,73.18 
											"/>
					<polygon class="st0" points="56.07,106.27 27.71,92.52 27.71,92.13 63.22,91.99 					"/>
					<path class="st1" d="M62.32,73.18v5.55l-0.19,0.61L27.71,63.57l-0.17-0.52l26.53-11.7h0.01c1.24,2.38,2.88,4.44,4.81,6.04v6.98
						v3.94v4.87H62.32z"/>
					<polygon class="st0" points="27.71,92.13 27.71,92.52 18,87.82 27.71,63.57 62.12,79.34 68.17,82.1 63.22,91.99 					"/>
				</g>
				<g>
					<polyline class="st1" points="27.71,92.52 27.71,112.04 68.63,131 108.62,112.04 108.62,92.34 					"/>
					<polygon class="st1" points="27.71,63.57 62.12,79.34 68.17,82.1 63.22,91.99 56.07,106.27 27.71,92.52 18,87.82 					"/>
					<polygon class="st1" points="108.62,63.57 75.1,78.71 68.17,81.84 68.26,82.04 72.93,91.94 79.68,106.27 108.62,92.34 
						118,87.82 					"/>
					<polyline class="st1" points="27.5,63.06 27.54,63.05 54.07,51.34 					"/>
					<line class="st1" x1="83.09" y1="51.77" x2="108.61" y2="63.13"/>
					<path class="st1" d="M83.09,51.77c-1.21,2.21-2.77,4.11-4.58,5.61v6.98v3.94v4.87H75.1H62.32H58.9v-4.87v-3.94v-6.98
						c-1.93-1.59-3.57-3.65-4.81-6.04c-1.66-3.16-2.62-6.91-2.62-10.93c0-11.4,7.72-20.66,17.24-20.66
						c9.52,0,17.23,9.26,17.23,20.66C85.94,44.62,84.9,48.51,83.09,51.77z"/>
					<polyline class="st2" points="69.48,64.36 78.52,64.36 81.03,64.36 					"/>
					<polyline class="st2" points="56.37,64.36 58.9,64.36 67.93,64.36 					"/>
					<polyline class="st2" points="56.37,68.31 58.9,68.31 78.52,68.31 81.03,68.31 					"/>
					<polyline class="st2" points="62.32,78.73 62.32,73.18 62.32,73.16 75.1,73.16 75.1,73.18 75.1,78.71 75.1,78.73 					"/>
					<line class="st2" x1="67.79" y1="9" x2="67.79" y2="15.68"/>
					<line class="st2" x1="75.91" y1="9.99" x2="74.46" y2="16.44"/>
					<line class="st2" x1="83.54" y1="13.46" x2="80.76" y2="19.25"/>
					<line class="st2" x1="90.17" y1="19.19" x2="86.24" y2="23.93"/>
					<line class="st2" x1="45.94" y1="20.75" x2="49.88" y2="25.47"/>
					<line class="st2" x1="52.28" y1="14.56" x2="55.06" y2="20.37"/>
					<line class="st2" x1="59.73" y1="10.56" x2="61.17" y2="17.01"/>
					<polygon class="st2" points="67.93,64.36 61.8,45.43 65.24,46.01 68.59,39.32 72.04,45.98 75.6,45.43 69.48,64.36 					"/>
					<polyline class="st1" points="68.17,82.79 68.26,91.96 68.63,131 					"/>
				</g>
			</g>
		</g>
	</g>
</g>
</svg>
