<?xml version="1.0" encoding="utf-8"?>
<!-- Generator: Adobe Illustrator 26.0.1, SVG Export Plug-In . SVG Version: 6.00 Build 0)  -->
<svg version="1.1" id="Capa_1" xmlns="http://www.w3.org/2000/svg" xmlns:xlink="http://www.w3.org/1999/xlink" x="0px" y="0px"
	 viewBox="0 0 140 140" style="enable-background:new 0 0 140 140;" xml:space="preserve">
<style type="text/css">
	.st0{fill:none;stroke:#EFEFEF;stroke-miterlimit:10;}
	.st1{fill:none;stroke:#EFEFEF;stroke-width:1.3;stroke-linecap:round;stroke-linejoin:round;stroke-miterlimit:10;}
	.st2{fill:none;stroke:#EFEFEF;stroke-width:1.3;stroke-linecap:round;stroke-linejoin:round;stroke-miterlimit:2.6131;}
</style>
<g>
	<g id="XMLID_607_">
		<g>
			<g id="XMLID_608_">
				<g>
					<polyline class="st0" points="108.6,91.8 108.6,92.3 79.7,106.3 72.9,91.9 					"/>
					<path class="st1" d="M78.5,57.4c1.8-1.5,3.4-3.4,4.6-5.6l25.5,11.4l0,0.4L75.1,78.7v-5.5h3.4v-4.9v-3.9V57.4z"/>
					<rect x="62.3" y="73.2" class="st1" width="12.8" height="0"/>
					<polyline class="st0" points="72.9,91.9 68.3,82 68.2,81.8 75.1,78.7 108.6,63.6 118,87.8 108.6,92.3 108.6,91.8 					"/>
					<polyline class="st1" points="72.9,91.9 79.7,106.3 108.6,92.3 108.6,112 68.6,131 68.3,92 					"/>
					<polyline class="st1" points="68.3,92 68.6,131 27.7,112 27.7,92.5 56.1,106.3 63.2,92 					"/>
					<polygon class="st1" points="62.3,73.2 75.1,73.2 75.1,78.7 68.2,81.8 68.3,82 68.2,82.1 62.1,79.3 62.3,78.7 					"/>
					<polygon class="st1" points="78.5,68.3 58.9,68.3 58.9,64.4 67.9,64.4 69.5,64.4 78.5,64.4 					"/>
					<path class="st1" d="M75.6,45.4L72,46l-3.4-6.7L65.2,46l-3.4-0.6l6.1,18.9h-9v-7c-1.9-1.6-3.6-3.7-4.8-6
						c-1.7-3.2-2.6-6.9-2.6-10.9c0-11.4,7.7-20.7,17.2-20.7S85.9,29,85.9,40.4c0,4.2-1,8.1-2.8,11.4c-1.2,2.2-2.8,4.1-4.6,5.6v7h-9
						L75.6,45.4z"/>
					<polygon class="st1" points="65.2,46 68.6,39.3 72,46 75.6,45.4 69.5,64.4 67.9,64.4 61.8,45.4 					"/>
					<polygon class="st1" points="58.9,68.3 78.5,68.3 78.5,73.2 75.1,73.2 75.1,73.2 62.3,73.2 62.3,73.2 58.9,73.2 					"/>
					<polyline class="st0" points="63.2,92 56.1,106.3 27.7,92.5 27.7,92.1 					"/>
					<path class="st1" d="M62.3,73.2v5.6l-0.2,0.6L27.7,63.6L27.5,63l26.5-11.7h0c1.2,2.4,2.9,4.4,4.8,6v7v3.9v4.9
						C58.9,73.2,62.3,73.2,62.3,73.2z"/>
				</g>
				<g>
					<polyline class="st1" points="27.7,92.5 27.7,112 68.6,131 108.6,112 108.6,92.3 					"/>
					<polygon class="st1" points="27.7,63.6 62.1,79.3 68.2,82.1 63.2,92 56.1,106.3 27.7,92.5 18,87.8 					"/>
					<polygon class="st1" points="108.6,63.6 75.1,78.7 68.2,81.8 68.3,82 72.9,91.9 79.7,106.3 108.6,92.3 118,87.8 					"/>
					<polyline class="st1" points="27.5,63.1 27.5,63 54.1,51.3 					"/>
					<line class="st1" x1="83.1" y1="51.8" x2="108.6" y2="63.1"/>
					<path class="st1" d="M83.1,51.8c-1.2,2.2-2.8,4.1-4.6,5.6v7v3.9v4.9h-3.4H62.3h-3.4v-4.9v-3.9v-7c-1.9-1.6-3.6-3.7-4.8-6
						c-1.7-3.2-2.6-6.9-2.6-10.9c0-11.4,7.7-20.7,17.2-20.7S85.9,29,85.9,40.4C85.9,44.6,84.9,48.5,83.1,51.8z"/>
					<polyline class="st2" points="69.5,64.4 78.5,64.4 81,64.4 					"/>
					<polyline class="st2" points="56.4,64.4 58.9,64.4 67.9,64.4 					"/>
					<polyline class="st2" points="56.4,68.3 58.9,68.3 78.5,68.3 81,68.3 					"/>
					<polyline class="st2" points="62.3,78.7 62.3,73.2 62.3,73.2 75.1,73.2 75.1,73.2 75.1,78.7 75.1,78.7 					"/>
					<line class="st2" x1="67.8" y1="9" x2="67.8" y2="15.7"/>
					<line class="st2" x1="75.9" y1="10" x2="74.5" y2="16.4"/>
					<line class="st2" x1="83.5" y1="13.5" x2="80.8" y2="19.2"/>
					<line class="st2" x1="90.2" y1="19.2" x2="86.2" y2="23.9"/>
					<line class="st2" x1="45.9" y1="20.8" x2="49.9" y2="25.5"/>
					<line class="st2" x1="52.3" y1="14.6" x2="55.1" y2="20.4"/>
					<line class="st2" x1="59.7" y1="10.6" x2="61.2" y2="17"/>
					<polygon class="st2" points="67.9,64.4 61.8,45.4 65.2,46 68.6,39.3 72,46 75.6,45.4 69.5,64.4 					"/>
					<polyline class="st1" points="68.2,82.8 68.3,92 68.6,131 					"/>
				</g>
			</g>
		</g>
	</g>
</g>
</svg>
