<?xml version="1.0" encoding="utf-8"?>
<!-- Generator: Adobe Illustrator 26.0.1, SVG Export Plug-In . SVG Version: 6.00 Build 0)  -->
<svg version="1.1" id="Capa_1" xmlns="http://www.w3.org/2000/svg" xmlns:xlink="http://www.w3.org/1999/xlink" x="0px" y="0px"
	 viewBox="0 0 140 140" style="enable-background:new 0 0 140 140;" xml:space="preserve">
<style type="text/css">
	.st0{fill:#EFEFEF;stroke:#EFEFEF;stroke-miterlimit:10;}
	.st1{fill:none;stroke:#EFEFEF;stroke-width:1.3;stroke-linecap:round;stroke-linejoin:round;stroke-miterlimit:10;}
	.st2{fill:none;stroke:#EFEFEF;stroke-width:1.3;stroke-linecap:round;stroke-linejoin:round;stroke-miterlimit:2.6131;}
</style>
<g>
	<g>
		<g>
			<g>
				<path class="st0" d="M69,79.7L69,79.7c-0.2,0-0.3-0.1-0.4-0.2l-26-43.9c0-0.1-0.1-0.2-0.1-0.3l0,0l0,0c0,0,0,0,0-0.1l0,0l0,0
					c0-0.1,0-0.2,0.1-0.4c0,0,0,0,0,0l8.5-12.6c0.1-0.1,0.2-0.2,0.3-0.2h34.9c0.1,0,0.3,0.1,0.3,0.2l8.5,12.6c0.2,0.2,0.1,0.5,0,0.7
					l-26,43.9C69.3,79.6,69.1,79.7,69,79.7z M43.9,35.8L69,78.2l25.1-42.4L43.9,35.8z M44,34.6l50,0l-7.8-11.5H51.8L44,34.6z"/>
			</g>
		</g>
		<g>
			<path class="st0" d="M69,79.7L69,79.7c-0.2,0-0.4-0.2-0.4-0.4L58.3,35.4c0-0.2,0-0.4,0.1-0.5c0.1-0.1,0.2-0.2,0.4-0.2l0,0l20.5,0
				c0.2,0,0.3,0.1,0.4,0.2c0.1,0.1,0.1,0.3,0.1,0.5L69.4,79.3C69.4,79.5,69.2,79.7,69,79.7z M59.3,35.8L69,77.1l9.7-41.2L59.3,35.8z
				"/>
		</g>
		<g>
			<path class="st0" d="M58.7,35.8c-0.1,0-0.2,0-0.2-0.1c-0.2-0.2-0.3-0.5-0.2-0.8l6.4-12.6c0.1-0.3,0.4-0.4,0.6-0.2
				c0.2,0.2,0.3,0.5,0.2,0.8l-6.4,12.6C59,35.7,58.9,35.8,58.7,35.8z"/>
		</g>
		<g>
			<path class="st0" d="M79.3,35.8c-0.2,0-0.3-0.1-0.4-0.3l-6.4-12.6c-0.1-0.3-0.1-0.6,0.2-0.8c0.2-0.2,0.5-0.1,0.6,0.2l6.4,12.6
				c0.1,0.3,0.1,0.6-0.2,0.8C79.4,35.7,79.4,35.8,79.3,35.8z"/>
		</g>
	</g>
</g>
<g>
	<g>
		<g id="XMLID_606_">
			<g>
				<polygon class="st1" points="41.6,124 51.9,124 84.1,124 94.4,124 94.4,131 41.6,131 				"/>
				<polygon class="st1" points="79.4,101.7 84.1,124 51.9,124 56.6,101.7 				"/>
				<path class="st1" d="M22.7,87.4h90.6c2.6,0,4.7-2.6,4.7-5.8v13.2c0,3.8-2.5,6.8-5.5,6.8H79.4H56.6h-9.7H23.6
					c-3,0-5.6-3.1-5.6-6.8V81.6C18,84.8,20.1,87.4,22.7,87.4z M65.9,94.6c0,1.4,0.9,2.6,2.1,2.6c1.2,0,2.1-1.2,2.1-2.6
					c0-1.4-0.9-2.6-2.1-2.6C66.8,92,65.9,93.2,65.9,94.6z"/>
			</g>
			<g>
				<path class="st2" d="M56.6,101.7h-9.7H23.6c-3,0-5.6-3.1-5.6-6.8V81.6V15.8c0-3.8,2.5-6.8,5.6-6.8h63.3"/>
				<path class="st2" d="M86.6,9h25.8c3.1,0,5.5,3.1,5.5,6.8v65.8v13.2c0,3.8-2.5,6.8-5.5,6.8H79.4"/>
				<path class="st2" d="M118,81.6c0,3.2-2.1,5.8-4.7,5.8H22.7c-2.6,0-4.7-2.6-4.7-5.8"/>
				<polyline class="st2" points="51.9,124 56.6,101.7 79.4,101.7 84.1,124 				"/>
				<path class="st2" d="M68,92c1.2,0,2.1,1.2,2.1,2.6c0,1.4-0.9,2.6-2.1,2.6c-1.2,0-2.1-1.2-2.1-2.6C65.9,93.2,66.8,92,68,92z"/>
				<polygon class="st2" points="84.1,124 94.4,124 94.4,131 41.6,131 41.6,124 51.9,124 				"/>
			</g>
		</g>
	</g>
</g>
</svg>
