<?xml version="1.0" encoding="utf-8"?>
<!-- Generator: Adobe Illustrator 26.0.1, SVG Export Plug-In . SVG Version: 6.00 Build 0)  -->
<svg version="1.1" id="Capa_1" xmlns="http://www.w3.org/2000/svg" xmlns:xlink="http://www.w3.org/1999/xlink" x="0px" y="0px"
	 viewBox="0 0 140 140" style="enable-background:new 0 0 140 140;" xml:space="preserve">
<style type="text/css">
	.st0{fill:none;stroke:#000000;stroke-width:1.3;stroke-linecap:round;stroke-linejoin:round;stroke-miterlimit:10;}
	.st1{fill:none;stroke:#000000;stroke-width:1.3;stroke-linecap:round;stroke-linejoin:round;stroke-miterlimit:2.6131;}
</style>
<g>
	<g>
		<g>
			<g>
				<path d="M69,79.68L69,79.68c-0.15,0-0.28-0.09-0.37-0.23L42.64,35.53c-0.05-0.08-0.08-0.17-0.09-0.26c0,0,0,0,0,0l0,0
					c0-0.02,0-0.04,0-0.06c0,0,0,0,0,0v0c0-0.13,0.03-0.25,0.09-0.36c0.01-0.01,0.01-0.02,0.02-0.03l8.54-12.61
					c0.09-0.13,0.22-0.2,0.35-0.2h34.9c0.14,0,0.27,0.08,0.35,0.2l8.54,12.61c0.15,0.22,0.14,0.54-0.01,0.74L69.37,79.44
					C69.28,79.59,69.14,79.68,69,79.68z M43.92,35.75L69,78.15l25.07-42.37L43.92,35.75z M43.99,34.61l50.03,0.02l-7.79-11.5H51.76
					L43.99,34.61z"/>
			</g>
		</g>
		<g>
			<path d="M69,79.68L69,79.68c-0.2,0-0.39-0.17-0.44-0.41L58.29,35.43c-0.04-0.17-0.01-0.36,0.07-0.5
				c0.09-0.14,0.22-0.23,0.37-0.23h0l20.53,0.02c0.15,0,0.28,0.08,0.37,0.23c0.09,0.14,0.11,0.33,0.07,0.5L69.44,79.27
				C69.38,79.51,69.2,79.68,69,79.68z M59.35,35.84L69,77.06l9.65-41.2L59.35,35.84z"/>
		</g>
		<g>
			<path d="M58.71,35.76c-0.08,0-0.17-0.03-0.24-0.09c-0.22-0.17-0.28-0.52-0.15-0.78l6.36-12.62c0.13-0.27,0.42-0.35,0.63-0.18
				c0.22,0.17,0.28,0.52,0.15,0.78L59.1,35.49C59.02,35.66,58.87,35.76,58.71,35.76z"/>
		</g>
		<g>
			<path d="M79.29,35.76c-0.15,0-0.3-0.1-0.39-0.27l-6.37-12.62c-0.13-0.27-0.07-0.62,0.15-0.78c0.22-0.17,0.5-0.08,0.63,0.18
				l6.37,12.62c0.13,0.27,0.07,0.62-0.15,0.78C79.45,35.73,79.37,35.76,79.29,35.76z"/>
		</g>
	</g>
</g>
<g>
	<g>
		<g id="XMLID_606_">
			<g>
				<polygon class="st0" points="41.56,123.99 51.88,123.99 84.13,123.99 94.44,123.99 94.44,131 41.56,131 				"/>
				<polygon class="st0" points="79.39,101.73 84.13,123.99 51.88,123.99 56.62,101.73 				"/>
				<path class="st0" d="M22.69,87.45h90.63c2.58,0,4.69-2.62,4.69-5.8v13.24c0,3.75-2.49,6.84-5.54,6.84H79.39H56.62h-9.68H23.56
					c-3.05,0-5.56-3.09-5.56-6.84V81.64C18,84.83,20.11,87.45,22.69,87.45z M65.91,94.6c0,1.42,0.94,2.57,2.09,2.57
					c1.16,0,2.09-1.15,2.09-2.57c0-1.44-0.93-2.6-2.09-2.6C66.85,91.99,65.91,93.16,65.91,94.6z"/>
			</g>
			<g>
				<path class="st1" d="M56.62,101.73h-9.68H23.56c-3.05,0-5.56-3.09-5.56-6.84V81.64v-65.8C18,12.08,20.51,9,23.56,9h63.26"/>
				<path class="st1" d="M86.61,9h25.85c3.05,0,5.54,3.08,5.54,6.84v65.8v13.24c0,3.75-2.49,6.84-5.54,6.84H79.39"/>
				<path class="st1" d="M118,81.64c0,3.18-2.11,5.8-4.69,5.8H22.69c-2.58,0-4.69-2.62-4.69-5.8"/>
				<polyline class="st1" points="51.88,123.99 56.62,101.73 79.39,101.73 84.13,123.99 				"/>
				<path class="st1" d="M68,91.99c1.16,0,2.09,1.16,2.09,2.6c0,1.42-0.93,2.57-2.09,2.57c-1.15,0-2.09-1.15-2.09-2.57
					C65.91,93.16,66.85,91.99,68,91.99z"/>
				<polygon class="st1" points="84.13,123.99 94.44,123.99 94.44,131 41.56,131 41.56,123.99 51.88,123.99 				"/>
			</g>
		</g>
	</g>
</g>
</svg>
