<?xml version="1.0" encoding="utf-8"?>
<!-- Generator: Adobe Illustrator 26.0.1, SVG Export Plug-In . SVG Version: 6.00 Build 0)  -->
<svg version="1.1" id="Capa_1" xmlns="http://www.w3.org/2000/svg" xmlns:xlink="http://www.w3.org/1999/xlink" x="0px" y="0px"
	 viewBox="0 0 140 140" style="enable-background:new 0 0 140 140;" xml:space="preserve">
<g>
	<g>
		<g>
			<path d="M119,81.67H19c-0.55,0-1-0.45-1-1V10.26c0-0.55,0.45-1,1-1h100c0.55,0,1,0.45,1,1v70.41
				C120,81.22,119.55,81.67,119,81.67z M20,79.67H118V11.26H20V79.67z"/>
		</g>
		<g>
			<path d="M112.2,74.86H25.81c-0.55,0-1-0.45-1-1V17.07c0-0.55,0.45-1,1-1h86.39c0.55,0,1,0.45,1,1v56.79
				C113.2,74.41,112.75,74.86,112.2,74.86z M26.81,72.86h84.38V18.07H26.81V72.86z"/>
		</g>
		<g>
			<path d="M84.41,95.87c-0.01,0-0.02,0-0.03,0H53.61c-0.32,0-0.62-0.15-0.81-0.41c-0.19-0.26-0.24-0.59-0.14-0.9l4.54-14.19
				c0.13-0.42,0.52-0.7,0.95-0.7h21.68c0.43,0,0.82,0.28,0.95,0.7l4.47,13.97c0.09,0.15,0.15,0.33,0.15,0.53
				C85.41,95.42,84.96,95.87,84.41,95.87z M54.99,93.86h28.02l-3.9-12.19H58.89L54.99,93.86z"/>
		</g>
		<g>
			<path d="M69,90.92c-1.73,0-3.15-1.41-3.15-3.15c0-1.74,1.41-3.15,3.15-3.15c1.74,0,3.15,1.41,3.15,3.15
				C72.15,89.51,70.73,90.92,69,90.92z M69,86.62c-0.63,0-1.14,0.52-1.14,1.15s0.51,1.15,1.14,1.15c0.63,0,1.15-0.51,1.15-1.15
				S69.63,86.62,69,86.62z"/>
		</g>
		<g>
			<path d="M113.26,131.15c-0.01,0-0.02,0-0.03,0H24.77c-0.29,0-0.57-0.13-0.76-0.35c-0.19-0.22-0.27-0.52-0.23-0.81l4.54-28.1
				c0.08-0.49,0.5-0.84,0.99-0.84h79.37c0.49,0,0.91,0.36,0.99,0.84l4.51,27.86c0.05,0.12,0.08,0.26,0.08,0.4
				C114.26,130.7,113.81,131.15,113.26,131.15z M25.95,129.15h86.1l-4.22-26.1H30.16L25.95,129.15z"/>
		</g>
		<g>
			<path d="M102.3,108.89H35.7c-0.55,0-1-0.45-1-1c0-0.55,0.45-1,1-1h66.61c0.55,0,1,0.45,1,1
				C103.3,108.44,102.86,108.89,102.3,108.89z"/>
		</g>
		<g>
			<path d="M102.3,117.24H35.7c-0.55,0-1-0.45-1-1s0.45-1,1-1h66.61c0.55,0,1,0.45,1,1S102.86,117.24,102.3,117.24z"/>
		</g>
		<g>
			<path d="M100.71,125.04H83.79c-0.55,0-1-0.45-1-1s0.45-1,1-1h16.92c0.55,0,1,0.45,1,1S101.26,125.04,100.71,125.04z
				 M52.37,125.04H35.7c-0.55,0-1-0.45-1-1s0.45-1,1-1h16.67c0.55,0,1,0.45,1,1S52.92,125.04,52.37,125.04z"/>
		</g>
		<g>
			<path d="M77.89,125.04H56.03c-0.55,0-1-0.45-1-1s0.45-1,1-1h21.86c0.55,0,1,0.45,1,1S78.44,125.04,77.89,125.04z"/>
		</g>
		<g>
			<path d="M67.73,37.1c-0.02,0-0.05,0-0.07,0c-0.01,0-0.02,0-0.02,0c-0.91-0.02-1.69-0.32-2.26-0.87
				c-0.56-0.57-0.86-1.35-0.87-2.27c-0.01-0.04-0.01-0.09-0.01-0.13c0.01-2.03,1.34-4.46,3.74-6.87c1.32-1.31,2.84-2.29,4.52-2.91
				c1.09-0.39,2.22-0.64,3.34-0.73c0.38-0.05,0.77,0.17,0.96,0.51c0.19,0.34,0.17,0.77-0.07,1.08c-1.04,1.42-1.07,2.81-1.09,4.28
				c-0.02,1.41-0.04,2.95-1.27,4.18C72.21,35.77,69.76,37.1,67.73,37.1z M67.69,35.08c0.05,0,0.09,0,0.14,0.01
				c0.77-0.03,2.66-0.43,5.39-3.15c0.62-0.62,0.66-1.45,0.68-2.74c0.02-1.07,0.03-2.29,0.47-3.56c-0.31,0.08-0.62,0.18-0.93,0.29
				c-1.4,0.52-2.68,1.34-3.79,2.45c-2.76,2.76-3.13,4.66-3.15,5.4c0,0.04,0.01,0.08,0.01,0.11c0,0.29,0.05,0.68,0.28,0.92
				c0.16,0.16,0.44,0.26,0.79,0.28C67.61,35.09,67.65,35.08,67.69,35.08z"/>
		</g>
		<g>
			<path d="M65.64,40.55c-0.26,0-0.52-0.1-0.71-0.3c-0.39-0.39-0.39-1.03,0.01-1.42c0.46-0.46,0.93-0.93,1.41-1.41
				c0.15-0.15,0.26-0.32,0.34-0.5c-0.46-0.19-0.87-0.46-1.22-0.81c-0.36-0.37-0.63-0.78-0.82-1.23c-0.18,0.08-0.34,0.19-0.49,0.33
				c-0.48,0.48-0.95,0.94-1.4,1.41c-0.38,0.4-1.02,0.41-1.42,0.02c-0.4-0.38-0.41-1.02-0.02-1.42c0.46-0.48,0.94-0.96,1.43-1.44
				c0.45-0.45,0.99-0.76,1.56-0.91c0.33-0.1,0.71-0.15,1.12-0.13c0.48,0.02,0.87,0.38,0.94,0.85c0.06,0.43,0.24,0.78,0.53,1.08
				c0.27,0.27,0.65,0.45,1.08,0.52c0.47,0.07,0.83,0.47,0.85,0.94c0.02,0.39-0.03,0.78-0.14,1.15c-0.16,0.58-0.47,1.09-0.9,1.52
				c-0.48,0.48-0.96,0.96-1.42,1.42C66.15,40.46,65.89,40.55,65.64,40.55z"/>
		</g>
		<g>
			<path d="M62.41,43.71c-0.26,0-0.51-0.1-0.71-0.29l-3.54-3.54c-0.39-0.39-0.39-1.02-0.01-1.41l0.68-0.7
				c0.85-0.87,2.15-2.2,2.48-2.53c0.39-0.39,1.02-0.39,1.42,0c0.39,0.39,0.39,1.02,0,1.42c-0.33,0.33-1.61,1.65-2.46,2.51l2.14,2.14
				c0.3-0.29,0.65-0.63,0.99-0.97l1.53-1.49c0.39-0.39,1.03-0.39,1.42,0.01c0.39,0.39,0.38,1.03-0.01,1.42l-1.54,1.5
				c-0.72,0.7-1.46,1.42-1.69,1.65C62.92,43.61,62.66,43.71,62.41,43.71z"/>
		</g>
		<g>
			<path d="M44.56,58.08c-0.26,0-0.57-0.12-0.75-0.3c-0.63-0.7-0.22-1.47,0.68-3.01c1.96-3.38,6.81-9.16,13.67-16.29
				c0.19-0.19,0.44-0.31,0.71-0.31c0.31-0.02,0.53,0.1,0.72,0.29L63.12,42c0.19,0.19,0.29,0.45,0.29,0.72
				c0,0.27-0.11,0.53-0.31,0.71C56,50.25,50.22,55.11,46.82,57.09C45.23,58,44.87,58.08,44.56,58.08z M58.89,40.6
				c-5.6,5.87-9.86,10.88-11.99,14.08c3.21-2.14,8.22-6.4,14.08-11.99L58.89,40.6z"/>
		</g>
		<g>
			<path d="M54.78,67.62c-0.28,0-0.54-0.11-0.74-0.32c-0.26-0.28-0.34-0.69-0.2-1.04l3.6-9.2c0.06-0.14,0.14-0.27,0.25-0.37
				l22.56-20.84c0.41-0.37,1.04-0.35,1.42,0.06l5.86,6.35c0.18,0.2,0.28,0.45,0.26,0.72c-0.01,0.27-0.13,0.52-0.32,0.7L64.92,64.5
				c-0.11,0.1-0.25,0.18-0.39,0.22l-9.46,2.85C54.97,67.61,54.87,67.62,54.78,67.62z M59.23,58l-2.77,7.07l7.27-2.19l21.66-20
				L80.89,38L59.23,58z"/>
		</g>
		<g>
			<path d="M64.78,65.1c-0.45,0-0.85-0.3-0.97-0.76l-0.3-1.2l-0.79-0.06c-0.46-0.04-0.84-0.38-0.91-0.84L61.61,61h-0.9
				c-0.27,0-0.52-0.11-0.71-0.29c-0.19-0.19-0.29-0.45-0.29-0.71l0-0.89l-1.24-0.2c-0.55-0.09-0.92-0.6-0.83-1.15
				c0.08-0.55,0.61-0.93,1.14-0.83l2.09,0.33c0.49,0.08,0.85,0.5,0.85,0.99l0,0.74h0.75c0.49,0,0.91,0.36,0.99,0.84l0.21,1.32
				l0.72,0.05c0.43,0.03,0.79,0.34,0.9,0.75l0.48,1.89c0.14,0.54-0.19,1.08-0.72,1.22C64.95,65.09,64.87,65.1,64.78,65.1z"/>
		</g>
		<g>
			<path d="M87.11,43.53c-0.26,0-0.51-0.1-0.71-0.29l-6.11-6.11c-0.19-0.19-0.29-0.44-0.29-0.71c0-0.27,0.11-0.52,0.29-0.71
				l1.6-1.59c1.21-1.22,3.36-1.23,4.58,0l2.94,2.93c0.62,0.62,0.95,1.44,0.95,2.32c0,0.87-0.34,1.67-0.95,2.28l-1.58,1.58
				C87.62,43.43,87.36,43.53,87.11,43.53z M82.41,36.42l4.7,4.69l0.88-0.88c0.23-0.23,0.36-0.54,0.36-0.87
				c0-0.34-0.13-0.65-0.36-0.89l-2.94-2.93c-0.47-0.47-1.29-0.47-1.74,0L82.41,36.42z"/>
		</g>
	</g>
</g>
</svg>
