<?xml version="1.0" encoding="utf-8"?>
<!-- Generator: Adobe Illustrator 26.0.1, SVG Export Plug-In . SVG Version: 6.00 Build 0)  -->
<svg version="1.1" id="Capa_1" xmlns="http://www.w3.org/2000/svg" xmlns:xlink="http://www.w3.org/1999/xlink" x="0px" y="0px"
	 viewBox="0 0 140 140" style="enable-background:new 0 0 140 140;" xml:space="preserve">
<style type="text/css">
	.st0{fill:#EFEFEF;}
</style>
<g>
	<g>
		<g>
			<path class="st0" d="M119,81.7H19c-0.5,0-1-0.4-1-1V10.3c0-0.6,0.5-1,1-1h100c0.6,0,1,0.4,1,1v70.4C120,81.2,119.6,81.7,119,81.7
				z M20,79.7h98V11.3H20V79.7z"/>
		</g>
		<g>
			<path class="st0" d="M112.2,74.9H25.8c-0.5,0-1-0.4-1-1V17.1c0-0.5,0.5-1,1-1h86.4c0.6,0,1,0.5,1,1v56.8
				C113.2,74.4,112.8,74.9,112.2,74.9z M26.8,72.9h84.4V18.1H26.8V72.9z"/>
		</g>
		<g>
			<path class="st0" d="M84.4,95.9C84.4,95.9,84.4,95.9,84.4,95.9H53.6c-0.3,0-0.6-0.2-0.8-0.4c-0.2-0.3-0.2-0.6-0.1-0.9l4.5-14.2
				c0.1-0.4,0.5-0.7,1-0.7h21.7c0.4,0,0.8,0.3,0.9,0.7l4.5,14c0.1,0.2,0.2,0.3,0.2,0.5C85.4,95.4,85,95.9,84.4,95.9z M55,93.9h28
				l-3.9-12.2H58.9L55,93.9z"/>
		</g>
		<g>
			<path class="st0" d="M69,90.9c-1.7,0-3.2-1.4-3.2-3.2s1.4-3.2,3.2-3.2s3.2,1.4,3.2,3.2C72.2,89.5,70.7,90.9,69,90.9z M69,86.6
				c-0.6,0-1.1,0.5-1.1,1.2s0.5,1.2,1.1,1.2s1.2-0.5,1.2-1.2S69.6,86.6,69,86.6z"/>
		</g>
		<g>
			<path class="st0" d="M113.3,131.1C113.2,131.1,113.2,131.1,113.3,131.1H24.8c-0.3,0-0.6-0.1-0.8-0.4s-0.3-0.5-0.2-0.8l4.5-28.1
				c0.1-0.5,0.5-0.8,1-0.8h79.4c0.5,0,0.9,0.4,1,0.8l4.5,27.9c0.1,0.1,0.1,0.3,0.1,0.4C114.3,130.7,113.8,131.1,113.3,131.1z
				 M26,129.1h86.1l-4.2-26.1H30.2L26,129.1z"/>
		</g>
		<g>
			<path class="st0" d="M102.3,108.9H35.7c-0.5,0-1-0.4-1-1s0.5-1,1-1h66.6c0.6,0,1,0.4,1,1C103.3,108.4,102.9,108.9,102.3,108.9z"
				/>
		</g>
		<g>
			<path class="st0" d="M102.3,117.2H35.7c-0.5,0-1-0.4-1-1s0.5-1,1-1h66.6c0.6,0,1,0.4,1,1S102.9,117.2,102.3,117.2z"/>
		</g>
		<g>
			<path class="st0" d="M100.7,125H83.8c-0.6,0-1-0.4-1-1s0.4-1,1-1h16.9c0.6,0,1,0.4,1,1S101.3,125,100.7,125z M52.4,125H35.7
				c-0.5,0-1-0.4-1-1s0.5-1,1-1h16.7c0.5,0,1,0.4,1,1S52.9,125,52.4,125z"/>
		</g>
		<g>
			<path class="st0" d="M77.9,125H56c-0.5,0-1-0.4-1-1s0.5-1,1-1h21.9c0.6,0,1,0.4,1,1S78.4,125,77.9,125z"/>
		</g>
		<g>
			<path class="st0" d="M67.7,37.1C67.7,37.1,67.7,37.1,67.7,37.1C67.7,37.1,67.6,37.1,67.7,37.1c-1,0-1.8-0.3-2.3-0.9
				c-0.6-0.6-0.9-1.3-0.9-2.3c0,0,0-0.1,0-0.1c0-2,1.3-4.5,3.7-6.9c1.3-1.3,2.8-2.3,4.5-2.9c1.1-0.4,2.2-0.6,3.3-0.7
				c0.4,0,0.8,0.2,1,0.5s0.2,0.8-0.1,1.1c-1,1.4-1.1,2.8-1.1,4.3c0,1.4,0,2.9-1.3,4.2C72.2,35.8,69.8,37.1,67.7,37.1z M67.7,35.1
				c0.1,0,0.1,0,0.1,0c0.8,0,2.7-0.4,5.4-3.1c0.6-0.6,0.7-1.5,0.7-2.7c0-1.1,0-2.3,0.5-3.6c-0.3,0.1-0.6,0.2-0.9,0.3
				c-1.4,0.5-2.7,1.3-3.8,2.5c-2.8,2.8-3.1,4.7-3.2,5.4c0,0,0,0.1,0,0.1c0,0.3,0.1,0.7,0.3,0.9c0.2,0.2,0.4,0.3,0.8,0.3
				C67.6,35.1,67.7,35.1,67.7,35.1z"/>
		</g>
		<g>
			<path class="st0" d="M65.6,40.5c-0.3,0-0.5-0.1-0.7-0.3c-0.4-0.4-0.4-1,0-1.4c0.5-0.5,0.9-0.9,1.4-1.4c0.2-0.2,0.3-0.3,0.3-0.5
				c-0.5-0.2-0.9-0.5-1.2-0.8c-0.4-0.4-0.6-0.8-0.8-1.2c-0.2,0.1-0.3,0.2-0.5,0.3c-0.5,0.5-1,0.9-1.4,1.4c-0.4,0.4-1,0.4-1.4,0
				c-0.4-0.4-0.4-1,0-1.4c0.5-0.5,0.9-1,1.4-1.4c0.5-0.5,1-0.8,1.6-0.9c0.3-0.1,0.7-0.2,1.1-0.1c0.5,0,0.9,0.4,0.9,0.8
				c0.1,0.4,0.2,0.8,0.5,1.1c0.3,0.3,0.7,0.5,1.1,0.5c0.5,0.1,0.8,0.5,0.8,0.9c0,0.4,0,0.8-0.1,1.2c-0.2,0.6-0.5,1.1-0.9,1.5
				c-0.5,0.5-1,1-1.4,1.4C66.2,40.5,65.9,40.5,65.6,40.5z"/>
		</g>
		<g>
			<path class="st0" d="M62.4,43.7c-0.3,0-0.5-0.1-0.7-0.3l-3.5-3.5c-0.4-0.4-0.4-1,0-1.4l0.7-0.7c0.8-0.9,2.2-2.2,2.5-2.5
				c0.4-0.4,1-0.4,1.4,0c0.4,0.4,0.4,1,0,1.4c-0.3,0.3-1.6,1.7-2.5,2.5l2.1,2.1c0.3-0.3,0.7-0.6,1-1l1.5-1.5c0.4-0.4,1-0.4,1.4,0
				c0.4,0.4,0.4,1,0,1.4l-1.5,1.5c-0.7,0.7-1.5,1.4-1.7,1.7C62.9,43.6,62.7,43.7,62.4,43.7z"/>
		</g>
		<g>
			<path class="st0" d="M44.6,58.1c-0.3,0-0.6-0.1-0.8-0.3c-0.6-0.7-0.2-1.5,0.7-3c2-3.4,6.8-9.2,13.7-16.3c0.2-0.2,0.4-0.3,0.7-0.3
				c0.3,0,0.5,0.1,0.7,0.3l3.5,3.5c0.2,0.2,0.3,0.5,0.3,0.7s-0.1,0.5-0.3,0.7C56,50.2,50.2,55.1,46.8,57.1
				C45.2,58,44.9,58.1,44.6,58.1z M58.9,40.6c-5.6,5.9-9.9,10.9-12,14.1c3.2-2.1,8.2-6.4,14.1-12L58.9,40.6z"/>
		</g>
		<g>
			<path class="st0" d="M54.8,67.6c-0.3,0-0.5-0.1-0.7-0.3c-0.3-0.3-0.3-0.7-0.2-1l3.6-9.2c0.1-0.1,0.1-0.3,0.2-0.4l22.6-20.8
				c0.4-0.4,1-0.3,1.4,0.1l5.9,6.3c0.2,0.2,0.3,0.5,0.3,0.7c0,0.3-0.1,0.5-0.3,0.7L64.9,64.5c-0.1,0.1-0.2,0.2-0.4,0.2l-9.5,2.8
				C55,67.6,54.9,67.6,54.8,67.6z M59.2,58l-2.8,7.1l7.3-2.2l21.7-20L80.9,38L59.2,58z"/>
		</g>
		<g>
			<path class="st0" d="M64.8,65.1c-0.4,0-0.8-0.3-1-0.8l-0.3-1.2l-0.8-0.1c-0.5,0-0.8-0.4-0.9-0.8L61.6,61h-0.9
				c-0.3,0-0.5-0.1-0.7-0.3c-0.2-0.2-0.3-0.5-0.3-0.7v-0.9l-1.2-0.2c-0.5-0.1-0.9-0.6-0.8-1.2c0.1-0.5,0.6-0.9,1.1-0.8l2.1,0.3
				c0.5,0.1,0.8,0.5,0.8,1V59h0.8c0.5,0,0.9,0.4,1,0.8l0.2,1.3l0.7,0c0.4,0,0.8,0.3,0.9,0.8l0.5,1.9c0.1,0.5-0.2,1.1-0.7,1.2
				C64.9,65.1,64.9,65.1,64.8,65.1z"/>
		</g>
		<g>
			<path class="st0" d="M87.1,43.5c-0.3,0-0.5-0.1-0.7-0.3l-6.1-6.1c-0.2-0.2-0.3-0.4-0.3-0.7s0.1-0.5,0.3-0.7l1.6-1.6
				c1.2-1.2,3.4-1.2,4.6,0l2.9,2.9c0.6,0.6,0.9,1.4,0.9,2.3c0,0.9-0.3,1.7-0.9,2.3l-1.6,1.6C87.6,43.4,87.4,43.5,87.1,43.5z
				 M82.4,36.4l4.7,4.7l0.9-0.9c0.2-0.2,0.4-0.5,0.4-0.9c0-0.3-0.1-0.7-0.4-0.9L85,35.5c-0.5-0.5-1.3-0.5-1.7,0L82.4,36.4z"/>
		</g>
	</g>
</g>
</svg>
